<svg version="1.1" id="Layer_1" xmlns="http://www.w3.org/2000/svg" x="0" y="0" viewBox="0 0 1489.3 1366.3" style="enable-background:new 0 0 1489.3 1366.3" xml:space="preserve"><style>.st0{fill:#facc15;stroke:#333;stroke-width:14;stroke-miterlimit:10;stroke-opacity:0}</style><path class="st0" d="M1104 852c2.2 0 3.6 2.4 2.5 4.3l-26.2 45.1c-.5.9-1.5 1.4-2.5 1.4l-51.9-.1c-2.2 0-3.6-2.4-2.5-4.3l17.4-29.9-71-129.3-153.5 264.9c-6.6 11.3 1.6 25.5 14.7 25.5l311.1.1c6.1 0 11.7-3.2 14.7-8.5l156.8-270.6c6.6-11.3-1.6-25.5-14.7-25.5l-298.3-.1 69.7 126.9M554.7 1088.1c-1.1 1.9-3.9 1.9-5.1 0l-25.7-45.3c-.5-.9-.5-2 0-2.9l4.3-7.3-144.6-1.3c-6.3-.1-12.2 3.2-15.4 8.5L201 1314.3c-7 11.4 1.4 25.9 15.1 26l337.3 2.2c6.3.1-4.2-3-1-8.3l172.7-273.5-152.3-3.7M491.7 709.2l-310.8-.1c-6.1 0-11.8 3.3-14.8 8.5L9.3 988c-6.6 11.4 1.6 25.7 14.8 25.7l310.8.1c6.1 0 11.8-3.3 14.8-8.5L506.4 735c6.7-11.5-1.5-25.8-14.7-25.8z"/><path class="st0" d="M554.7 1088.1c-1.1 1.9-3.9 1.9-5.1 0l-25.7-45.3c-.5-.9-.5-2 0-2.9l26.2-44.7c1.1-1.9 3.9-1.9 5.1 0L571 1023l155.9 3.8-158.8-277.2c-6.8-11.8-23.8-11.9-30.7-.1l-163.6 282c-3.2 5.5-3.2 12.2 0 17.7l162.9 284.4c6.8 11.8 23.8 11.9 30.7.1l158.4-273L573 1057M598.4 644.3h307c6.2 0 11.9-3.2 15-8.5l161.4-271.4c6.7-11.3-1.7-25.4-15.2-25.4l-321.6.7c-6.2 0-11.9 3.2-15 8.5l-67.7 115.7h12.6c1 0 2 .6 2.5 1.5l25.9 45.1c1.1 1.9-.3 4.4-2.5 4.4l-31.8-.1"/><path class="st0" d="m598.4 644.3 301.2.2c13.4 0 21.7-14.4 15-26L758.4 348.4c-3.1-5.4-8.8-8.7-15-8.7l-313.6-.2c-13.4 0-21.7 14.4-15 26l152.9 264.4L638.5 500l-18.4-31.9c-1.1-1.9.3-4.4 2.5-4.4l52.3.1c1 0 2 .6 2.5 1.5l25.9 45.1c1.1 1.9-.3 4.4-2.5 4.4l-31.8-.1M569.8 15.5 413.2 285.9c-6.6 11.4 1.6 25.7 14.8 25.7l310.8.1c6.1 0 11.8-3.3 14.8-8.5L910.3 32.8c6.6-11.4-1.6-25.7-14.8-25.7L584.7 7c-6.1 0-11.8 3.3-14.9 8.5zM1305 1359.1c6.1 0 11.8-3.2 14.9-8.4l160.1-269.2c6.7-11.2-1.7-25.2-15-25.2l-319 .7c-6.1 0-11.8 3.2-14.9 8.4l-156.9 268.3c-6.7 11.2.7 25.5 14 25.4H1305z"/><path class="st0" d="m1314.2 1333.5-154.9-267.9c-3.1-5.3-8.7-8.6-14.9-8.6l-311.1-.2c-13.2 0-21.5 14.3-14.9 25.8l154.9 267.9c3.1 5.3 8.7 8.6 14.9 8.6l311.1.2c13.3 0 21.5-14.3 14.9-25.8z"/></svg>