<svg viewBox="0 0 2701 3915" xmlns="http://www.w3.org/2000/svg"><path d="M505 60c0-33.137 26.863-60 60-60h274c33.137 0 60 26.863 60 60v906H505V60ZM1793 60c0-33.137 26.86-60 60-60h274c33.14 0 60 26.863 60 60v906h-394V60Z" fill="#edfcfc"/><path d="M0 1124.21c0-87.15 70.642-157.788 157.783-157.788H2542.28c87.15 0 157.79 70.638 157.79 157.788v785.95c0 745.61-604.43 1350.04-1350.04 1350.04C604.431 3260.2 0 2655.77 0 1910.16v-785.95Z" fill="url(#a)"/><path d="M899.365 3145.8H1800.7v112.43c0 163.39-132.45 295.84-295.84 295.84h-309.65c-163.39 0-295.845-132.45-295.845-295.84V3145.8Z" fill="url(#b)"/><path d="M1045.31 3506.73h609.44v211.04c0 108.93-88.3 197.23-197.23 197.23h-214.98c-108.92 0-197.23-88.3-197.23-197.23v-211.04Z" fill="url(#c)"/><path fill-rule="evenodd" clip-rule="evenodd" d="M2593.17 2437.56c-208-759.31-903-1317.3-1728.32-1317.3-313.627 0-608.434 80.58-864.85 222.16v567.74c0 587.57 375.359 1087.47 899.365 1272.99v75.08c0 108.68 58.611 203.68 145.945 255.11v204.43c0 108.93 88.31 197.23 197.23 197.23h214.98c108.93 0 197.23-88.3 197.23-197.23v-204.43c87.34-51.43 145.95-146.43 145.95-255.11v-75.08c357.12-126.44 645.2-398.89 792.47-745.59Z" fill="url(#d)"/><path fill-rule="evenodd" clip-rule="evenodd" d="M2270.38 2897.88c-66.13-760.7-704.59-1357.52-1482.449-1357.52-289.363 0-559.436 82.59-787.931 225.48v144.32c0 587.57 375.359 1087.47 899.365 1272.99v75.08c0 108.68 58.611 203.68 145.945 255.11v204.43c0 108.93 88.31 197.23 197.23 197.23h214.98c108.93 0 197.23-88.3 197.23-197.23v-204.43c87.34-51.43 145.95-146.43 145.95-255.11v-75.08c176.25-62.4 335.69-160.37 469.68-285.27Z" fill="url(#e)"/><path fill-rule="evenodd" clip-rule="evenodd" d="M1802.19 3182.88c-28.04-619.94-539.52-1113.95-1166.387-1113.95-217.874 0-421.811 59.68-596.356 163.58 108.531 443.02 435.711 800.2 860.643 950.64v75.08c0 108.68 58.611 203.68 145.95 255.11v204.43c0 108.93 88.3 197.23 197.23 197.23h214.98c108.93 0 197.23-88.3 197.23-197.23v-204.43c87.34-51.43 145.95-146.43 145.95-255.11v-75.08c.25-.09.51-.18.76-.27Z" fill="url(#f)"/><defs><linearGradient id="a" x1="1801.69" y1="1816.48" x2="2773.04" y2="844.14" gradientUnits="userSpaceOnUse"><stop stop-color="#46FF47"/><stop offset="1" stop-color="#9CFF9D"/></linearGradient><linearGradient id="b" x1="1801.69" y1="1816.48" x2="2773.04" y2="844.14" gradientUnits="userSpaceOnUse"><stop stop-color="#46FF47"/><stop offset="1" stop-color="#9CFF9D"/></linearGradient><linearGradient id="c" x1="1801.69" y1="1816.48" x2="2773.04" y2="844.14" gradientUnits="userSpaceOnUse"><stop stop-color="#46FF47"/><stop offset="1" stop-color="#9CFF9D"/></linearGradient><linearGradient id="d" x1="1566.99" y1="2002.86" x2="2045.27" y2="1367.78" gradientUnits="userSpaceOnUse"><stop stop-color="#10D9ED"/><stop offset="1" stop-color="#10D9ED" stop-opacity=".3"/></linearGradient><linearGradient id="e" x1="1460.48" y1="2228.69" x2="2044" y2="1208.5" gradientUnits="userSpaceOnUse"><stop stop-color="#FA51D3"/><stop offset=".959" stop-color="#FA51D3" stop-opacity="0"/></linearGradient><linearGradient id="f" x1="1012.77" y1="3147.78" x2="1497.96" y2="1907.21" gradientUnits="userSpaceOnUse"><stop stop-color="#FFE700"/><stop offset="1" stop-color="#FFE700" stop-opacity="0"/></linearGradient></defs></svg>